<svg xmlns="http://www.w3.org/2000/svg" width="24" height="22" viewBox="0 0 24 22">
  <path fill="#898989" d="M21.0948746,0 C19.5507088,0 18.2944384,1.22222222 18.2944384,2.72453704 C18.2944384,3.48842593 18.5823337,4.15046296 19.131952,4.65972222 C19.2628135,4.78703704 19.393675,4.88888889 19.5245365,4.96527778 L17.3260632,10.8217593 C17.2998909,10.8217593 17.2737186,10.8217593 17.2475463,10.8217593 C17.221374,10.8217593 17.1690294,10.8217593 17.1428571,10.8217593 C16.0959651,10.8217593 15.1537623,11.3819444 14.6826609,12.2731481 L10.8353326,10.7199074 C10.8353326,10.6944444 10.8353326,10.6689815 10.8353326,10.6435185 C10.8353326,10.5925926 10.8615049,10.5671296 10.8615049,10.5162037 C10.8615049,9.01388889 9.60523446,7.79166667 8.0610687,7.79166667 C6.51690294,7.79166667 5.2606325,8.98842593 5.2606325,10.4907407 C5.2606325,11.1273148 5.47001091,11.7384259 5.91494002,12.1967593 L3.40239913,16.6273148 C3.21919302,16.5763889 3.00981461,16.5509259 2.80043621,16.5509259 C1.25627045,16.5509259 0,17.7731481 0,19.275463 C0,20.7777778 1.25627045,22 2.80043621,22 C4.34460196,22 5.60087241,20.7777778 5.60087241,19.275463 C5.60087241,18.6134259 5.3653217,18.0023148 4.92039258,17.4930556 L7.40676118,13.1388889 C7.61613959,13.1898148 7.85169029,13.2152778 8.087241,13.2152778 C8.89858233,13.2152778 9.65757906,12.8587963 10.1810251,12.2731481 L14.4471101,13.9791667 C14.6826609,15.2777778 15.8604144,16.2199074 17.221374,16.2199074 C18.7655398,16.2199074 20.0218103,14.9976852 20.0218103,13.4953704 C20.0218103,12.6805556 19.655398,11.9421296 19.0534351,11.4328704 L21.3565976,5.32175926 C22.691385,5.24537037 23.7906216,4.27777778 23.9738277,3.00462963 C24,2.87731481 24,2.72453704 24,2.59722222 C23.8953108,1.14583333 22.5866957,0 21.0948746,0 Z"/>
</svg>
