<svg xmlns="http://www.w3.org/2000/svg" width="174" height="66" viewBox="0 0 174 66">
  <g fill="#22A08F" fill-rule="evenodd" transform="translate(-3 -3)">
    <g transform="translate(0 3)">
      <text font-family="OpenSans, Open Sans" font-size="38" letter-spacing="5.003">
        <tspan x="0" y="41">pulse</tspan>
      </text>
      <path fill-rule="nonzero" d="M113.012028,50 C112.682991,50.822593 109.397988,50.5 108.512028,50.5 L3,50.5 C1.80338306,50.5 0.5,50.1966168 0.5,49 C0.5,47.8033832 1.80338306,47.5 3,47.5 L110.512028,47.5 L116.512028,33 C117.292702,31.0483157 120.002212,30.960733 120.512028,33 L126,54 L138,2.5 C138.587001,0.347662584 140.958915,0.335663024 141.5,2.5 L148.5,32 L151,26 C151.329037,25.177407 152.11404,24.5 153,24.5 L163.5,24.5 C164.696617,24.5 165.5,25.3033832 165.5,26.5 C165.5,27.6966168 164.541979,28.1666661 163.345362,28.1666661 L153.978933,28.1666661 L150,37.5 C149.219326,39.4516843 147.009817,39.539267 146.5,37.5 L139.5,10 L127.5,64 C126.912999,66.1523375 125.041084,66.1643369 124.5,64 L118.512028,37.5 L113.012028,50 Z" transform="translate(11)"/>
    </g>
    <text font-family="OpenSans, Open Sans" font-size="12" letter-spacing="7.322">
      <tspan x="3" y="13">PROPERTY</tspan>
    </text>
  </g>
</svg>
