<svg xmlns="http://www.w3.org/2000/svg" width="27" height="27" viewBox="0 0 27 27">
  <g fill="#898989">
    <path d="M27,12.1045805 C27,11.1159303 26.6312437,10.6307256 25.693421,10.3753547 C25.1132117,10.2148358 24.5293532,10.0616133 23.9491439,9.90839076 L23.1463385,9.69679773 C23.0624089,9.6749088 23.0186195,9.60559384 23.004023,9.56546413 C22.9894266,9.52898257 22.9602336,9.43777868 23.0149704,9.34292663 L23.478408,8.55127685 C23.7593899,8.06972031 24.0440209,7.58816376 24.3213537,7.10660722 C24.7993878,6.28212404 24.7154581,5.61451155 24.0549682,4.94325091 L22.0917442,2.95865424 C21.4458508,2.30563437 20.7123786,2.20348602 19.9168715,2.66315363 C19.489925,2.90758006 19.0629785,3.1593028 18.636032,3.40737738 C18.289366,3.6116741 17.939051,3.81232266 17.592385,4.01661938 C17.5777885,4.02391569 17.5121045,4.031212 17.4245257,3.99108229 C17.3442452,3.95460073 17.3041049,3.90352655 17.3004558,3.88893393 C17.2347717,3.64085934 17.1727367,3.3891366 17.1143509,3.14106202 C16.9793336,2.58654236 16.8370181,2.01378192 16.6582115,1.45196595 C16.548738,1.11268747 16.358984,0.839075801 16.1911247,0.601945683 C16.1327389,0.518038103 16.074353,0.434130523 16.0196163,0.350222943 L15.8043185,0 L11.2064332,0 L10.9911354,0.33563032 C10.9400478,0.415889745 10.8816619,0.492501013 10.8269252,0.569112282 C10.6554168,0.798946088 10.4656628,1.0616133 10.3561893,1.40089177 C10.1773827,1.9663559 10.031418,2.54276449 9.89275166,3.10093231 C9.82706758,3.35995136 9.76503262,3.62261857 9.69569943,3.88163762 C9.68475208,3.92176733 9.63001535,3.96919335 9.56798039,3.99473044 C9.49499808,4.02391569 9.41836666,4.02756384 9.37457728,4.00202675 L7.10482754,2.66315363 C6.32756598,2.20348602 5.60869026,2.29104175 4.97009508,2.92217268 C4.2840614,3.60072963 3.59802771,4.28293474 2.91929226,4.97243616 C2.27704796,5.62545602 2.19676743,6.27847588 2.6675033,7.09566275 C3.10539714,7.85812728 3.55058921,8.61694366 3.99213217,9.37940819 C4.03592155,9.4523713 4.00672863,9.53263073 3.99578128,9.56546413 C3.98118482,9.60194568 3.93739544,9.68585326 3.83886933,9.71139035 C3.60897506,9.76976084 3.38272991,9.82813133 3.15283564,9.88285367 C2.57992454,10.0251317 1.98511874,10.171058 1.40126029,10.3571139 C1.06554168,10.4629104 0.802805372,10.6562627 0.572911107,10.8240778 C0.496279685,10.8824483 0.415999147,10.9371707 0.339367726,10.9882448 L0,11.203486 L0,15.7928658 L0.33571861,16.008107 C0.415999147,16.0591812 0.492630569,16.1175517 0.572911107,16.172274 C0.802805372,16.3400892 1.06554168,16.5334414 1.40126029,16.6428861 C1.97782051,16.828942 2.56532808,16.9748683 3.13459007,17.1134982 C3.37178256,17.1718687 3.60532594,17.2302392 3.83886933,17.2922578 C3.94104455,17.3177949 3.98848305,17.4053506 4.00307952,17.4454803 C4.01767598,17.4783137 4.04321978,17.5622213 3.9994304,17.6351844 C3.8096764,17.9598703 3.61627329,18.2882043 3.42287018,18.6128901 C3.1674321,19.0470207 2.91199403,19.477503 2.66020507,19.9116336 C2.20041654,20.7069315 2.2843462,21.3818403 2.93023961,22.0348602 C3.59802771,22.709769 4.26946493,23.3810296 4.94455127,24.0522902 C5.61963761,24.7199027 6.26553102,24.8001621 7.10847666,24.3149574 C7.47703731,24.1033644 7.84559796,23.8881232 8.2141586,23.6765302 C8.61921041,23.4394001 9.02791132,23.2059181 9.42201578,22.9760843 C9.49134897,22.9614917 9.66285739,23.0344548 9.69205031,23.0891771 L9.95478662,24.0778273 C10.093453,24.6141062 10.2321194,25.1503851 10.378084,25.686664 C10.6262238,26.6132955 11.1152053,26.9927037 12.056677,26.9927037 C12.3996939,26.9927037 12.7463598,26.9927037 13.0893767,26.9927037 C13.7060772,26.9890555 14.3227777,26.9890555 14.935829,27 C14.9504255,27 14.965022,27 14.9759693,27 C15.8262132,27 16.4100716,26.5439805 16.6180712,25.7122011 C16.8114743,24.9387921 17.0194739,24.1690312 17.2274735,23.3992704 L17.3004558,23.1293069 C17.3150522,23.0782327 17.369789,23.0235103 17.4427713,22.9943251 C17.5084553,22.968788 17.5814377,22.9651398 17.6215779,22.9870288 C17.939051,23.1730847 18.2528749,23.3554925 18.5703479,23.5415484 C19.0118909,23.8005675 19.4570829,24.0632347 19.902275,24.3186056 C20.7196768,24.7928658 21.3728685,24.7126064 22.0297092,24.070531 C22.3763752,23.7312525 22.7157429,23.3883259 23.0587598,23.0453993 C23.3981275,22.7061208 23.7374952,22.3668423 24.0768629,22.031212 C24.6862652,21.4329145 24.7847913,20.6668018 24.3468975,19.9298743 C23.9308983,19.2257803 23.5221974,18.5216863 23.1134965,17.8175922 L22.9967248,17.6132955 C22.971181,17.5695176 22.971181,17.4965545 23.0003739,17.4272396 C23.0295668,17.3579246 23.0770053,17.3068504 23.128093,17.2922578 C23.9929333,17.062424 24.8577736,16.8398865 25.7262631,16.6137009 L25.7700524,16.6027564 C26.5619105,16.3984597 27.0107517,15.8074585 27,14.9902716 C26.9925061,14.3737333 26.9961552,13.7535468 26.9961552,13.1370085 C27,12.7904337 27,12.4475071 27,12.1045805 Z M25.5292108,15.139846 C25.5255617,15.1434941 25.4963688,15.1653831 25.4051409,15.1909201 L25.3613515,15.2018646 C24.4928621,15.4280503 23.6243726,15.6542359 22.7558832,15.8840697 C22.2596035,16.0154033 21.8582008,16.3729226 21.6538504,16.8690717 C21.453149,17.3579246 21.4823419,17.9087961 21.7341309,18.3465748 L21.8509026,18.5508715 C22.2632526,19.2586137 22.6719535,19.9700041 23.0879527,20.6740981 C23.1901279,20.8455614 23.1755315,20.8674503 23.0514615,20.9951358 C22.7047956,21.3344143 22.3654278,21.6773409 22.022411,22.0202675 C21.6830433,22.359546 21.3436756,22.6988245 21.0043078,23.0344548 C20.9130799,23.1256587 20.8619923,23.1584921 20.8583432,23.1621403 C20.8364485,23.1584921 20.7707644,23.1402513 20.6320981,23.0599919 C20.1905551,22.804621 19.7490122,22.5456019 19.3074692,22.2865829 C18.9899962,22.100527 18.6725231,21.914471 18.3550501,21.7284151 C17.9171563,21.4730442 17.3807363,21.4438589 16.8844566,21.6481557 C16.3918261,21.8488042 16.0196163,22.2610458 15.8882481,22.7498987 L15.8152658,23.0198622 C15.6072663,23.7969193 15.3956176,24.5776246 15.1985653,25.35833 C15.1657233,25.4860154 15.1328813,25.5188488 15.1328813,25.5188488 C15.1328813,25.5188488 15.0890919,25.5516822 14.9577237,25.5407377 C14.5818649,25.5334414 14.2023569,25.5334414 13.826498,25.5334414 C13.5783581,25.5334414 13.3302183,25.5334414 13.0820785,25.5334414 C12.8339386,25.5334414 12.5894479,25.5334414 12.341308,25.5334414 C12.1406067,25.5334414 11.9180107,25.5297933 11.8559757,25.5188488 C11.8413792,25.4860154 11.8158354,25.4203486 11.7829934,25.3036076 C11.6406779,24.7746251 11.5020115,24.2419943 11.3633451,23.7093636 L11.1042579,22.7134171 C10.9838371,22.2537495 10.6189256,21.8561005 10.126295,21.6518038 C9.6409627,21.4475071 9.11184097,21.469396 8.70678917,21.6992298 C8.29808826,21.9327118 7.88938734,22.1698419 7.48068642,22.406972 C7.11212577,22.6185651 6.74721424,22.8338062 6.37865359,23.0453993 C6.22539075,23.132955 6.15605756,23.1548439 6.15240844,23.1621403 C6.13416287,23.1511958 6.07942614,23.1183624 5.96995268,23.0125659 C5.29851546,22.3486015 4.63072735,21.6809891 3.96658836,21.0097284 C3.86076402,20.9039319 3.83157109,20.8492096 3.82427286,20.8492096 C3.82792198,20.8309688 3.84251844,20.7725983 3.91914986,20.6412647 C4.17093882,20.2107823 4.42272778,19.7803 4.67451674,19.3534657 C4.86791985,19.0251317 5.06132296,18.6967977 5.25472607,18.3684637 C5.51746238,17.9197406 5.55030441,17.3798135 5.34595396,16.8836644 C5.1416035,16.3875152 4.714657,16.0117552 4.20378086,15.8804216 C3.96293925,15.8184029 3.72209763,15.7563843 3.48125602,15.6980138 C2.91199403,15.5557357 2.37192496,15.420754 1.83915413,15.2529388 C1.7369789,15.2201054 1.5946634,15.117957 1.4523479,15.0158087 L1.4523479,11.9841913 C1.59101428,11.882043 1.73332978,11.7798946 1.83550501,11.7470612 C2.37192496,11.5755979 2.91564315,11.4406161 3.49220337,11.2983381 C3.72574675,11.2399676 3.96293925,11.1815971 4.19648263,11.1232266 C4.70370966,10.991893 5.13065615,10.6197811 5.33500661,10.1272801 C5.53935707,9.63477908 5.50651503,9.09485205 5.24742784,8.6461289 C4.80588489,7.88731253 4.36434193,7.12849615 3.92644809,6.36967977 C3.8571149,6.24929064 3.83157109,6.18362383 3.82427286,6.15079043 C3.83886933,6.1289015 3.87536048,6.07782732 3.9519919,5.9975679 C4.62707824,5.31536279 5.30581369,4.63680584 5.98819825,3.96189704 C6.09767171,3.85245237 6.15240844,3.83421159 6.15240844,3.83421159 C6.15970667,3.83421159 6.21809252,3.8415079 6.3567589,3.92176733 L8.62650864,5.26064045 C9.06440248,5.51965951 9.61906801,5.54884475 10.1153477,5.34819619 C10.6043291,5.14754763 10.9728898,4.7389542 11.1006088,4.25739765 C11.169942,3.99108229 11.2356261,3.72476692 11.3049593,3.45845156 C11.4436257,2.89663559 11.5749938,2.36765302 11.7428531,1.84596676 C11.7756952,1.7438184 11.8778704,1.60154033 11.9800456,1.46291042 L15.0051622,1.46291042 C15.1182848,1.62342927 15.2241091,1.7766518 15.2606003,1.89704094 C15.4248105,2.41507904 15.5525295,2.9367653 15.6911959,3.49493312 C15.7532309,3.75030401 15.8189149,4.00932306 15.884599,4.26469396 C16.0086689,4.7389542 16.3735805,5.14389947 16.866211,5.34819619 C17.3551925,5.55249291 17.8989107,5.53060397 18.3185589,5.28617754 C18.668874,5.08188083 19.0191891,4.87758411 19.3695042,4.67328739 C19.7928015,4.42521281 20.2160989,4.17713822 20.6430454,3.9327118 C20.8656414,3.80502635 20.8729397,3.80502635 21.0517463,3.98743413 L23.0149704,5.97203081 C23.1244438,6.08512363 23.160935,6.14349412 23.1682332,6.14349412 C23.1645841,6.16538306 23.1426894,6.23469801 23.0587598,6.38062424 C22.781427,6.86218079 22.5004451,7.34008918 22.2194632,7.81799757 L21.7560256,8.60964734 C21.4859911,9.07296311 21.4494999,9.62383462 21.6538504,10.1236319 C21.8582008,10.616133 22.2632526,10.9736522 22.7704796,11.108634 L23.5769341,11.3238752 C24.1534944,11.4770977 24.7337037,11.6303202 25.3102639,11.7871909 C25.4270356,11.8200243 25.4927197,11.8455614 25.5292108,11.860154 C25.5365091,11.9002837 25.5438073,11.976895 25.5438073,12.1118768 C25.5438073,12.4548034 25.5438073,12.7940819 25.5438073,13.1370085 C25.5438073,13.7608431 25.5401582,14.3846777 25.5474564,15.0085124 C25.5438073,15.1033644 25.5292108,15.139846 25.5292108,15.139846 Z"/>
    <path d="M13.517833,9 C13.5142332,9 13.5142332,9 13.5106333,9 C10.8971299,9.0036 9,10.9008 9,13.5144 C9,16.0632 10.9259288,17.9892 13.4818344,18 C13.4890341,18 13.4962338,18 13.4998337,18 C16.0377399,18 17.9708684,16.0884 17.9996674,13.5468 C18.0140668,12.2904 17.5604836,11.1348 16.7289143,10.2924 C15.9009449,9.4572 14.7597871,9 13.517833,9 Z M13.4998337,16.56 C13.4962338,16.56 13.4890341,16.56 13.4854342,16.56 C11.7178995,16.5528 10.4363469,15.2712 10.4363469,13.5144 C10.4363469,11.7072 11.6999002,10.44 13.5106333,10.44 C13.5106333,10.44 13.5142332,10.44 13.5142332,10.44 C14.3710015,10.44 15.1485728,10.7496 15.7029523,11.3076 C16.2645315,11.8728 16.5669203,12.6648 16.5561207,13.5324 C16.5417213,15.2892 15.2565688,16.56 13.4998337,16.56 Z"/>
  </g>
</svg>
